<?xml version="1.0" encoding="UTF-8"?>
<svg xmlns="http://www.w3.org/2000/svg" xmlns:xlink="http://www.w3.org/1999/xlink" width="100px" height="100px" viewBox="0 0 100 100" version="1.1">
<g id="surface1">
<path style=" stroke:none;fill-rule:nonzero;fill:rgb(0%,0%,0%);fill-opacity:1;" d="M 50 0 C 22.429688 0 0 22.429688 0 50 C 0 77.570312 22.429688 100 50 100 C 77.570312 100 100 77.570312 100 50 C 100 22.429688 77.570312 0 50 0 Z M 9.675781 50 C 9.675781 29.113281 25.640625 11.886719 46.003906 9.875 C 42.203125 12.699219 38.789062 16.054688 35.921875 19.84375 C 29.304688 28.585938 25.804688 39.011719 25.804688 50 C 25.804688 60.988281 29.304688 71.414062 35.921875 80.15625 C 38.789062 83.945312 42.203125 87.300781 46.003906 90.125 C 25.640625 88.113281 9.675781 70.886719 9.675781 50 Z M 62.898438 88.207031 C 46.6875 82.726562 35.484375 67.222656 35.484375 50 C 35.484375 32.777344 46.6875 17.273438 62.898438 11.792969 C 78.828125 17.1875 90.324219 32.277344 90.324219 50 C 90.324219 67.722656 78.828125 82.8125 62.898438 88.207031 Z M 62.898438 88.207031 "/>
</g>
</svg>
